<svg width="22" height="24" viewBox="0 0 22 24" fill="none" xmlns="http://www.w3.org/2000/svg">
<path d="M8.19453 6.69989C8.43776 6.13052 8.57523 5.50421 8.57523 4.83234C8.57523 2.31571 6.68231 0.277344 4.34523 0.277344C2.00816 0.277344 0.115234 2.31571 0.115234 4.83234C0.115234 7.34898 2.00816 9.38734 4.34523 9.38734C4.96916 9.38734 5.55078 9.23931 6.07953 8.97739L8.57523 11.6648L6.07953 14.3523C5.55078 14.0904 4.96916 13.9423 4.34523 13.9423C2.00816 13.9423 0.115234 15.9807 0.115234 18.4973C0.115234 21.014 2.00816 23.0523 4.34523 23.0523C6.68231 23.0523 8.57523 21.014 8.57523 18.4973C8.57523 17.8255 8.43776 17.1992 8.19453 16.6298L10.6902 13.9423L18.0927 21.9136H21.2652V20.7748L8.19453 6.69989ZM4.34523 7.10984C3.18198 7.10984 2.23023 6.09636 2.23023 4.83234C2.23023 3.56833 3.18198 2.55484 4.34523 2.55484C5.50848 2.55484 6.46023 3.56833 6.46023 4.83234C6.46023 6.09636 5.50848 7.10984 4.34523 7.10984ZM4.34523 20.7748C3.18198 20.7748 2.23023 19.7614 2.23023 18.4973C2.23023 17.2333 3.18198 16.2198 4.34523 16.2198C5.50848 16.2198 6.46023 17.2333 6.46023 18.4973C6.46023 19.7614 5.50848 20.7748 4.34523 20.7748ZM10.6902 12.2342C10.3941 12.2342 10.1615 11.9837 10.1615 11.6648C10.1615 11.346 10.3941 11.0955 10.6902 11.0955C10.9863 11.0955 11.219 11.346 11.219 11.6648C11.219 11.9837 10.9863 12.2342 10.6902 12.2342ZM18.0927 1.41609L11.7477 8.24859L13.8627 10.5261L21.2652 2.55484V1.41609H18.0927Z" fill="#C7B58F"/>
</svg>
