<svg width="16" height="23" viewBox="0 0 16 23" fill="none" xmlns="http://www.w3.org/2000/svg">
<path fill-rule="evenodd" clip-rule="evenodd" d="M0.0761719 3.46591C0.0761719 2.74107 0.343567 2.04592 0.819535 1.53339C1.2955 1.02085 1.94105 0.73291 2.61417 0.73291H8.43381C9.10687 0.733065 9.75231 1.02111 10.2282 1.53368L14.5605 6.19891C15.0365 6.71133 15.304 7.40636 15.3042 8.13114V19.8639C15.3042 20.5887 15.0368 21.2839 14.5608 21.7964C14.0848 22.309 13.4393 22.5969 12.7662 22.5969H2.61417C1.94105 22.5969 1.2955 22.309 0.819535 21.7964C0.343567 21.2839 0.0761719 20.5887 0.0761719 19.8639V3.46591ZM2.61417 11.6649C2.61417 11.3025 2.74787 10.9549 2.98585 10.6986C3.22384 10.4424 3.54661 10.2984 3.88317 10.2984H11.4972C11.8337 10.2984 12.1565 10.4424 12.3945 10.6986C12.6325 10.9549 12.7662 11.3025 12.7662 11.6649C12.7662 12.0273 12.6325 12.3749 12.3945 12.6312C12.1565 12.8874 11.8337 13.0314 11.4972 13.0314H3.88317C3.54661 13.0314 3.22384 12.8874 2.98585 12.6312C2.74787 12.3749 2.61417 12.0273 2.61417 11.6649ZM3.88317 15.7644C3.54661 15.7644 3.22384 15.9084 2.98585 16.1646C2.74787 16.4209 2.61417 16.7685 2.61417 17.1309C2.61417 17.4933 2.74787 17.8409 2.98585 18.0972C3.22384 18.3534 3.54661 18.4974 3.88317 18.4974H11.4972C11.8337 18.4974 12.1565 18.3534 12.3945 18.0972C12.6325 17.8409 12.7662 17.4933 12.7662 17.1309C12.7662 16.7685 12.6325 16.4209 12.3945 16.1646C12.1565 15.9084 11.8337 15.7644 11.4972 15.7644H3.88317Z" fill="#C7B58F"/>
</svg>
