<svg width="26" height="28" viewBox="0 0 26 28" fill="none" xmlns="http://www.w3.org/2000/svg">
<path d="M5.07511 4.09961C4.40199 4.09961 3.75644 4.38755 3.28047 4.90009C2.8045 5.41262 2.53711 6.10777 2.53711 6.83261C2.53711 7.55745 2.8045 8.2526 3.28047 8.76513C3.75644 9.27767 4.40199 9.56561 5.07511 9.56561H20.3031C20.9762 9.56561 21.6218 9.27767 22.0977 8.76513C22.5737 8.2526 22.8411 7.55745 22.8411 6.83261C22.8411 6.10777 22.5737 5.41262 22.0977 4.90009C21.6218 4.38755 20.9762 4.09961 20.3031 4.09961H5.07511Z" fill="#C7B58F"/>
<path fill-rule="evenodd" clip-rule="evenodd" d="M3.80664 10.9321H21.5726V20.4976C21.5726 21.2225 21.3052 21.9176 20.8293 22.4302C20.3533 22.9427 19.7078 23.2306 19.0346 23.2306H6.34464C5.67152 23.2306 5.02597 22.9427 4.55 22.4302C4.07404 21.9176 3.80664 21.2225 3.80664 20.4976V10.9321ZM10.1516 15.0316C10.1516 14.6692 10.2853 14.3216 10.5233 14.0654C10.7613 13.8091 11.0841 13.6651 11.4206 13.6651H13.9586C14.2952 13.6651 14.618 13.8091 14.856 14.0654C15.0939 14.3216 15.2276 14.6692 15.2276 15.0316C15.2276 15.394 15.0939 15.7416 14.856 15.9979C14.618 16.2542 14.2952 16.3981 13.9586 16.3981H11.4206C11.0841 16.3981 10.7613 16.2542 10.5233 15.9979C10.2853 15.7416 10.1516 15.394 10.1516 15.0316Z" fill="#C7B58F"/>
</svg>
