<svg width="21" height="24" viewBox="0 0 21 24" fill="none" xmlns="http://www.w3.org/2000/svg">
<path d="M1.80611 0.366699C1.46955 0.366699 1.14677 0.510669 0.908791 0.766938C0.670807 1.02321 0.537109 1.37078 0.537109 1.7332C0.537109 2.09562 0.670807 2.44319 0.908791 2.69946C1.14677 2.95573 1.46955 3.0997 1.80611 3.0997H3.35429L3.74133 4.76956C3.74518 4.78879 3.74941 4.80792 3.75402 4.82695L5.47733 12.247L4.34411 13.466C2.74517 15.1878 3.87712 18.1312 6.13847 18.1312H17.0341C17.3707 18.1312 17.6934 17.9872 17.9314 17.731C18.1694 17.4747 18.3031 17.1271 18.3031 16.7647C18.3031 16.4023 18.1694 16.0547 17.9314 15.7984C17.6934 15.5422 17.3707 15.3982 17.0341 15.3982H6.13847L7.40747 14.0317H15.7651C16.0007 14.0316 16.2316 13.9608 16.432 13.8273C16.6324 13.6939 16.7943 13.503 16.8996 13.276L20.7066 5.07702C20.8032 4.86874 20.8489 4.63732 20.8391 4.40471C20.8294 4.17211 20.7647 3.94604 20.651 3.74796C20.5374 3.54988 20.3786 3.38635 20.1898 3.27289C20.0009 3.15944 19.7883 3.09982 19.5721 3.0997H5.96843L5.57504 1.40114C5.5063 1.10564 5.34783 0.843346 5.12481 0.655926C4.90179 0.468506 4.62701 0.366707 4.34411 0.366699H1.80611ZM18.3031 21.5474C18.3031 22.0911 18.1026 22.6124 17.7456 22.9968C17.3886 23.3812 16.9044 23.5972 16.3996 23.5972C15.8948 23.5972 15.4106 23.3812 15.0536 22.9968C14.6967 22.6124 14.4961 22.0911 14.4961 21.5474C14.4961 21.0038 14.6967 20.4825 15.0536 20.0981C15.4106 19.7137 15.8948 19.4977 16.3996 19.4977C16.9044 19.4977 17.3886 19.7137 17.7456 20.0981C18.1026 20.4825 18.3031 21.0038 18.3031 21.5474ZM6.24761 23.5972C6.75245 23.5972 7.23661 23.3812 7.59359 22.9968C7.95056 22.6124 8.15111 22.0911 8.15111 21.5474C8.15111 21.0038 7.95056 20.4825 7.59359 20.0981C7.23661 19.7137 6.75245 19.4977 6.24761 19.4977C5.74277 19.4977 5.25861 19.7137 4.90163 20.0981C4.54466 20.4825 4.34411 21.0038 4.34411 21.5474C4.34411 22.0911 4.54466 22.6124 4.90163 22.9968C5.25861 23.3812 5.74277 23.5972 6.24761 23.5972Z" fill="#C7B58F"/>
</svg>
