<svg width="22" height="22" viewBox="0 0 22 22" fill="none" xmlns="http://www.w3.org/2000/svg">
<path d="M6.56647 12.1907L9.55919 8.96804L2.13554 0.985401C1.34331 1.84096 0.898438 2.99986 0.898438 4.20806C0.898437 5.41626 1.34331 6.57517 2.13554 7.43073L6.56647 12.1907V12.1907ZM13.7363 10.1296C15.3543 10.9381 17.6279 10.3687 19.3093 8.55809C21.3292 6.38308 21.7204 3.2629 20.1659 1.58894C18.622 -0.0736362 15.7244 0.336314 13.694 2.51133C12.0126 4.32194 11.4838 6.77025 12.2347 8.51254L1.91347 19.6267L3.40454 21.2324L10.6907 13.4092L17.9663 21.2438L19.4574 19.6381L12.1818 11.8035L13.7363 10.1296V10.1296Z" fill="#C7B58F"/>
</svg>
