<svg width="24" height="21" viewBox="0 0 24 21" fill="none" xmlns="http://www.w3.org/2000/svg">
<path d="M15.4975 4.19911C15.4975 5.28637 15.0964 6.32909 14.3825 7.09789C13.6685 7.8667 12.7002 8.29861 11.6905 8.29861C10.6809 8.29861 9.71253 7.8667 8.99858 7.09789C8.28463 6.32909 7.88353 5.28637 7.88353 4.19911C7.88353 3.11185 8.28463 2.06913 8.99858 1.30033C9.71253 0.53152 10.6809 0.0996094 11.6905 0.0996094C12.7002 0.0996094 13.6685 0.53152 14.3825 1.30033C15.0964 2.06913 15.4975 3.11185 15.4975 4.19911V4.19911ZM21.8425 6.93211C21.8425 7.65695 21.5751 8.3521 21.0992 8.86463C20.6232 9.37717 19.9777 9.66511 19.3045 9.66511C18.6314 9.66511 17.9859 9.37717 17.5099 8.86463C17.0339 8.3521 16.7665 7.65695 16.7665 6.93211C16.7665 6.20727 17.0339 5.51212 17.5099 4.99959C17.9859 4.48705 18.6314 4.19911 19.3045 4.19911C19.9777 4.19911 20.6232 4.48705 21.0992 4.99959C21.5751 5.51212 21.8425 6.20727 21.8425 6.93211V6.93211ZM16.7665 16.4976C16.7665 15.0479 16.2317 13.6576 15.2798 12.6326C14.3279 11.6075 13.0368 11.0316 11.6905 11.0316C10.3443 11.0316 9.05319 11.6075 8.10126 12.6326C7.14932 13.6576 6.61453 15.0479 6.61453 16.4976V20.5971H16.7665V16.4976ZM6.61453 6.93211C6.61453 7.65695 6.34714 8.3521 5.87117 8.86463C5.3952 9.37717 4.74965 9.66511 4.07653 9.66511C3.40341 9.66511 2.75786 9.37717 2.28189 8.86463C1.80593 8.3521 1.53853 7.65695 1.53853 6.93211C1.53853 6.20727 1.80593 5.51212 2.28189 4.99959C2.75786 4.48705 3.40341 4.19911 4.07653 4.19911C4.74965 4.19911 5.3952 4.48705 5.87117 4.99959C6.34714 5.51212 6.61453 6.20727 6.61453 6.93211V6.93211ZM19.3045 20.5971V16.4976C19.3064 15.1083 18.9788 13.7414 18.3528 12.5266C18.9154 12.3715 19.5034 12.3569 20.0721 12.4838C20.6408 12.6107 21.175 12.8758 21.634 13.2589C22.0931 13.6419 22.4648 14.1328 22.7208 14.6941C22.9769 15.2554 23.1105 15.8723 23.1115 16.4976V20.5971H19.3045ZM5.02828 12.5266C4.40234 13.7414 4.07475 15.1083 4.07653 16.4976V20.5971H0.269532V16.4976C0.269287 15.8718 0.402095 15.2543 0.657778 14.6923C0.913461 14.1303 1.28523 13.6388 1.7446 13.2555C2.20396 12.8721 2.73873 12.6072 3.30791 12.4808C3.87709 12.3545 4.46558 12.3701 5.02828 12.5266V12.5266Z" fill="#C7B58F"/>
</svg>
