<svg width="19" height="21" viewBox="0 0 19 21" fill="none" xmlns="http://www.w3.org/2000/svg">
<path fill-rule="evenodd" clip-rule="evenodd" d="M0.806641 2.83261C0.806641 2.10777 1.07404 1.41262 1.55 0.900086C2.02597 0.38755 2.67152 0.0996094 3.34464 0.0996094H16.0346C16.7078 0.0996094 17.3533 0.38755 17.8293 0.900086C18.3052 1.41262 18.5726 2.10777 18.5726 2.83261V13.7646C18.5726 14.4894 18.3052 15.1846 17.8293 15.6971C17.3533 16.2097 16.7078 16.4976 16.0346 16.4976H13.2175L13.3735 17.1658L14.3938 18.2645C14.5712 18.4556 14.6921 18.6991 14.741 18.9641C14.7899 19.2291 14.7648 19.5038 14.6688 19.7535C14.5728 20.0032 14.4102 20.2166 14.2015 20.3667C13.9929 20.5169 13.7476 20.5971 13.4966 20.5971H5.88264C5.6317 20.5971 5.3864 20.5169 5.17776 20.3667C4.96913 20.2166 4.80652 20.0032 4.71049 19.7535C4.61447 19.5038 4.58934 19.2291 4.63828 18.9641C4.68722 18.6991 4.80804 18.4556 4.98546 18.2645L6.00573 17.1658L6.16182 16.4976H3.34464C2.67152 16.4976 2.02597 16.2097 1.55 15.6971C1.07404 15.1846 0.806641 14.4894 0.806641 13.7646V2.83261ZM8.13004 12.3981H3.34464V2.83261H16.0346V12.3981H8.13004Z" fill="#C7B58F"/>
</svg>
