<svg width="26" height="28" viewBox="0 0 26 28" fill="none" xmlns="http://www.w3.org/2000/svg">
<path d="M7.89938 1.70812C7.7805 1.70831 7.66319 1.73726 7.55611 1.79285C7.44903 1.84843 7.35492 1.92922 7.28074 2.02925L2.44268 8.54062H9.51735C9.7277 8.54062 9.92944 8.63061 10.0782 8.79077C10.2269 8.95094 10.3105 9.16818 10.3105 9.39469C10.3105 10.0742 10.5612 10.7259 11.0074 11.2064C11.4536 11.6869 12.0588 11.9569 12.6899 11.9569C13.3209 11.9569 13.9261 11.6869 14.3723 11.2064C14.8185 10.7259 15.0692 10.0742 15.0692 9.39469C15.0692 9.16818 15.1528 8.95094 15.3015 8.79077C15.4503 8.63061 15.652 8.54062 15.8624 8.54062H22.937L18.099 2.02925C18.0248 1.92922 17.9307 1.84843 17.8236 1.79285C17.7165 1.73726 17.5992 1.70831 17.4803 1.70812H7.89938ZM6.04347 0.961674C6.26615 0.661904 6.54855 0.419848 6.86979 0.253394C7.19102 0.0869402 7.54289 0.000342358 7.89938 0L17.4803 0C17.8368 0.000342358 18.1887 0.0869402 18.5099 0.253394C18.8312 0.419848 19.1136 0.661904 19.3362 0.961674L25.2054 8.86175C25.2716 8.95076 25.3206 9.05314 25.3495 9.16286C25.3783 9.27258 25.3865 9.38741 25.3735 9.50059L24.7549 14.8368C24.6829 15.4566 24.4032 16.0268 23.9682 16.4402C23.5333 16.8535 22.9731 17.0815 22.3929 17.0812H2.98676C2.40665 17.0815 1.84644 16.8535 1.41148 16.4402C0.97652 16.0268 0.696769 15.4566 0.624835 14.8368L0.00619803 9.50059C-0.00680328 9.38741 0.0013765 9.27258 0.0302548 9.16286C0.0591331 9.05314 0.108125 8.95076 0.174341 8.86175L6.04347 0.961674ZM0.198134 19.0798C0.272458 18.9887 0.363946 18.9156 0.466511 18.8656C0.569076 18.8155 0.680366 18.7895 0.792978 18.7894H9.51735C9.7277 18.7894 9.92944 18.8794 10.0782 19.0395C10.2269 19.1997 10.3105 19.4169 10.3105 19.6434C10.3105 20.323 10.5612 20.9747 11.0074 21.4552C11.4536 21.9357 12.0588 22.2056 12.6899 22.2056C13.3209 22.2056 13.9261 21.9357 14.3723 21.4552C14.8185 20.9747 15.0692 20.323 15.0692 19.6434C15.0692 19.4169 15.1528 19.1997 15.3015 19.0395C15.4503 18.8794 15.652 18.7894 15.8624 18.7894H24.5867C24.6992 18.7894 24.8103 18.8152 24.9128 18.865C25.0153 18.9148 25.1068 18.9875 25.1812 19.0783C25.2556 19.1691 25.3112 19.2759 25.3443 19.3915C25.3775 19.5072 25.3875 19.6292 25.3735 19.7493L24.7549 25.0855C24.6829 25.7054 24.4032 26.2756 23.9682 26.6889C23.5333 27.1023 22.9731 27.3302 22.3929 27.33H2.98676C2.40665 27.3302 1.84644 27.1023 1.41148 26.6889C0.97652 26.2756 0.696769 25.7054 0.624835 25.0855L0.00619803 19.7493C-0.00783349 19.6292 0.00202336 19.5072 0.0351146 19.3915C0.0682058 19.2757 0.123775 19.1689 0.198134 19.078V19.0798Z" fill="#C7B58F"/>
</svg>
