<svg width="19" height="21" viewBox="0 0 19 21" fill="none" xmlns="http://www.w3.org/2000/svg">
<path fill-rule="evenodd" clip-rule="evenodd" d="M9.68964 8.29861C10.6993 8.29861 11.6676 7.8667 12.3816 7.09789C13.0955 6.32909 13.4966 5.28637 13.4966 4.19911C13.4966 3.11185 13.0955 2.06913 12.3816 1.30033C11.6676 0.53152 10.6993 0.0996094 9.68964 0.0996094C8.67996 0.0996094 7.71164 0.53152 6.99769 1.30033C6.28373 2.06913 5.88264 3.11185 5.88264 4.19911C5.88264 5.28637 6.28373 6.32909 6.99769 7.09789C7.71164 7.8667 8.67996 8.29861 9.68964 8.29861ZM0.806641 20.5971C0.806641 19.341 1.03641 18.0971 1.48282 16.9366C1.92923 15.776 2.58355 14.7215 3.40841 13.8333C4.23327 12.945 5.21253 12.2405 6.29026 11.7597C7.368 11.279 8.52311 11.0316 9.68964 11.0316C10.8562 11.0316 12.0113 11.279 13.089 11.7597C14.1668 12.2405 15.146 12.945 15.9709 13.8333C16.7957 14.7215 17.4501 15.776 17.8965 16.9366C18.3429 18.0971 18.5726 19.341 18.5726 20.5971H0.806641Z" fill="#C7B58F"/>
</svg>
